<svg width="302" height="48" viewBox="0 0 302 48" fill="none" xmlns="http://www.w3.org/2000/svg">
<g clip-path="url(#clip0_12_317)">
<path fill-rule="evenodd" clip-rule="evenodd" d="M195.242 13.1921C195.401 13.2087 195.48 13.3347 195.48 13.5689V16.8113C195.48 16.9284 195.522 17.0041 195.607 17.0373C195.691 17.071 195.766 17.0461 195.833 16.9621C195.984 16.7776 196.236 16.4887 196.589 16.0948C196.942 15.7014 197.424 15.3075 198.038 14.9136C198.65 14.5202 199.406 14.1766 200.305 13.8833C201.204 13.5904 202.258 13.4435 203.466 13.4435C204.81 13.4435 205.986 13.6192 206.994 13.9711C208.001 14.323 208.87 14.8009 209.601 15.4037C210.331 16.0069 210.936 16.6942 211.415 17.4648C211.893 18.2355 212.271 19.0477 212.548 19.9024C212.825 20.757 213.018 21.6111 213.128 22.4658C213.237 23.3204 213.292 24.1248 213.292 24.8784C213.292 26.7717 213.06 28.481 212.599 30.0052C212.136 31.53 211.439 32.8371 210.508 33.926C209.575 35.0155 208.405 35.8525 206.994 36.4392C205.583 37.0254 203.937 37.3187 202.056 37.3187C200.998 37.3187 200.083 37.2558 199.31 37.1303C198.537 37.0044 197.899 36.8619 197.395 36.7033C196.892 36.5437 196.51 36.3977 196.249 36.263C195.989 36.1293 195.85 36.0453 195.833 36.0121C195.749 35.9453 195.67 35.9282 195.594 35.9618C195.518 35.9955 195.48 36.0541 195.48 36.1376V43.9284C195.48 44.6151 195.628 45.1681 195.922 45.5869C196.215 46.0057 196.552 46.3366 196.929 46.5797C197.308 46.8227 197.677 46.9946 198.038 47.0951C198.399 47.1956 198.646 47.2542 198.781 47.2708C198.915 47.3045 199.011 47.3591 199.071 47.4343C199.129 47.5095 199.15 47.589 199.134 47.673C199.116 47.7569 199.071 47.8321 198.995 47.8995C198.92 47.9658 198.815 48 198.68 48H185.479C185.345 48 185.241 47.9658 185.164 47.8995C185.089 47.8321 185.043 47.7569 185.025 47.673C185.009 47.589 185.03 47.5095 185.089 47.4343C185.148 47.3591 185.244 47.3045 185.379 47.2708C185.513 47.2542 185.76 47.1956 186.121 47.0951C186.483 46.9946 186.853 46.8227 187.23 46.5797C187.608 46.3366 187.944 46.0057 188.238 45.5869C188.531 45.1681 188.679 44.6151 188.679 43.9284V18.646C188.679 18.4283 188.578 18.2941 188.377 18.2438C188.342 18.2438 188.221 18.2185 188.012 18.1682C187.801 18.1179 187.562 18.0593 187.293 17.9925C187.025 17.9256 186.777 17.8665 186.549 17.8163C186.323 17.766 186.184 17.7328 186.134 17.7157C185.916 17.6655 185.802 17.5527 185.795 17.3765C185.785 17.2008 185.908 17.0793 186.16 17.0119C186.814 16.8616 187.525 16.6566 188.289 16.3964C189.052 16.1368 189.821 15.8434 190.594 15.5169C191.366 15.1899 192.113 14.8385 192.835 14.4612C193.558 14.0844 194.204 13.7037 194.775 13.3181C194.926 13.217 195.082 13.1755 195.242 13.1921ZM125.828 13.6767C127.138 13.6767 128.293 13.8568 129.292 14.217C130.291 14.5772 131.156 15.0462 131.887 15.6241C132.617 16.202 133.222 16.8473 133.7 17.5594C134.179 18.272 134.565 18.9792 134.86 19.6831C135.153 20.3869 135.36 21.0487 135.477 21.6686C135.594 22.2885 135.653 22.7829 135.653 23.1514C135.653 23.3188 135.598 23.4364 135.489 23.5028C135.38 23.5702 135.233 23.6034 135.049 23.6034H122.074C121.806 23.6034 121.672 23.7459 121.672 24.0309C121.672 25.7397 121.823 27.2059 122.125 28.4291C122.428 29.6522 122.868 30.6533 123.448 31.4323C124.027 32.2113 124.749 32.7852 125.615 33.1538C126.479 33.5223 127.483 33.7068 128.624 33.7068C129.498 33.7068 130.275 33.6145 130.955 33.43C131.635 33.246 132.227 33.0322 132.731 32.7892C133.235 32.5466 133.646 32.3162 133.965 32.098C134.284 31.8803 134.519 31.7378 134.671 31.6709C134.906 31.5704 135.09 31.5919 135.225 31.7339C135.36 31.8764 135.36 32.0897 135.225 32.3748C135.175 32.4753 135.061 32.6725 134.884 32.9654C134.709 33.2587 134.452 33.5979 134.116 33.983C133.78 34.3686 133.36 34.7708 132.857 35.1896C132.353 35.6083 131.752 35.9934 131.056 36.3454C130.358 36.6973 129.56 36.9862 128.662 37.2127C127.763 37.4387 126.76 37.5519 125.652 37.5519C123.972 37.5519 122.452 37.2878 121.092 36.7602C119.732 36.2321 118.568 35.4658 117.603 34.4608C116.637 33.4554 115.89 32.2327 115.361 30.7914C114.832 29.3506 114.567 27.7253 114.567 25.9159C114.567 23.9387 114.895 22.1879 115.55 20.6631C116.205 19.1388 117.061 17.861 118.119 16.8302C119.177 15.8003 120.378 15.017 121.722 14.481C123.065 13.9446 124.434 13.6767 125.828 13.6767ZM174.37 13.6767C176.099 13.6767 177.69 13.9827 179.143 14.5938C180.596 15.2059 181.843 16.0434 182.885 17.1069C183.925 18.1715 184.74 19.4234 185.328 20.8647C185.915 22.3056 186.21 23.8469 186.21 25.4888C186.21 27.1474 185.891 28.7053 185.253 30.1632C184.614 31.6207 183.741 32.8985 182.632 33.9957C181.524 35.0934 180.218 35.9602 178.715 36.5967C177.212 37.2337 175.596 37.5519 173.866 37.5519C172.135 37.5519 170.544 37.2464 169.092 36.6348C167.639 36.0232 166.392 35.1857 165.351 34.1216C164.309 33.0576 163.495 31.8091 162.907 30.377C162.319 28.9445 162.025 27.3987 162.025 25.7402C162.025 24.0983 162.345 22.5442 162.983 21.078C163.621 19.6123 164.494 18.3306 165.603 17.2329C166.711 16.1357 168.017 15.2688 169.52 14.6319C171.023 13.9949 172.639 13.6767 174.37 13.6767ZM145.06 13.6802C145.22 13.6973 145.299 13.8228 145.299 14.057V16.2188C145.652 15.9005 146.055 15.5945 146.508 15.3012C146.962 15.0083 147.47 14.7526 148.033 14.5344C148.595 14.3172 149.225 14.141 149.922 14.0068C150.619 13.873 151.387 13.8057 152.227 13.8057C153.604 13.8057 154.759 13.9565 155.691 14.2581C156.623 14.5598 157.395 14.9619 158.008 15.4647C158.622 15.9669 159.092 16.5453 159.419 17.1984C159.747 17.8519 159.982 18.5303 160.125 19.2342C160.268 19.938 160.351 20.6379 160.377 21.3329C160.402 22.028 160.415 22.6776 160.415 23.2804V33.107C160.415 33.7777 160.549 34.318 160.818 34.728C161.086 35.1389 161.393 35.4572 161.737 35.6832C162.081 35.9091 162.418 36.0687 162.745 36.1605C163.072 36.2528 163.304 36.3074 163.438 36.324C163.572 36.3577 163.669 36.4119 163.728 36.487C163.786 36.5627 163.807 36.6422 163.791 36.7262C163.774 36.8101 163.728 36.8853 163.652 36.9522C163.576 37.0195 163.471 37.0527 163.337 37.0527H150.691C150.556 37.0527 150.451 37.0195 150.375 36.9522C150.3 36.8853 150.254 36.8101 150.237 36.7262C150.22 36.6422 150.24 36.5627 150.3 36.487C150.359 36.4119 150.455 36.3577 150.589 36.324C150.724 36.3074 150.955 36.2528 151.282 36.1605C151.61 36.0687 151.946 35.9091 152.29 35.6832C152.634 35.4572 152.941 35.1389 153.21 34.728C153.478 34.318 153.613 33.7777 153.613 33.107V22.2754C153.596 21.5716 153.541 20.8473 153.449 20.1015C153.357 19.3562 153.163 18.6777 152.869 18.0657C152.576 17.4541 152.147 16.9519 151.585 16.5575C151.022 16.1641 150.27 15.9669 149.33 15.9669C148.356 15.9669 147.6 16.1597 147.063 16.5453C146.526 16.9309 146.126 17.4082 145.866 17.9778C145.606 18.5474 145.447 19.1551 145.387 19.7999C145.328 20.4451 145.299 21.0186 145.299 21.5213V33.107C145.299 33.7777 145.433 34.318 145.703 34.728C145.971 35.1389 146.278 35.4572 146.622 35.6832C146.966 35.9091 147.302 36.0687 147.63 36.1605C147.957 36.2528 148.188 36.3074 148.323 36.324C148.457 36.3577 148.553 36.4119 148.612 36.487C148.67 36.5627 148.691 36.6422 148.675 36.7262C148.658 36.8101 148.612 36.8853 148.537 36.9522C148.461 37.0195 148.356 37.0527 148.221 37.0527H135.575C135.44 37.0527 135.336 37.0195 135.26 36.9522C135.185 36.8853 135.138 36.8101 135.121 36.7262C135.105 36.6422 135.126 36.5627 135.185 36.487C135.243 36.4119 135.34 36.3577 135.475 36.324C135.609 36.3074 135.84 36.2528 136.167 36.1605C136.495 36.0687 136.83 35.9091 137.175 35.6832C137.519 35.4572 137.826 35.1389 138.094 34.728C138.363 34.318 138.497 33.7777 138.497 33.107V19.1336C138.497 18.9159 138.396 18.7822 138.195 18.7319C138.161 18.7319 138.04 18.7065 137.829 18.6563C137.62 18.606 137.38 18.5474 137.112 18.4801C136.844 18.4137 136.596 18.3546 136.369 18.3044C136.142 18.2541 136.004 18.2209 135.953 18.2038C135.735 18.1535 135.621 18.0408 135.613 17.8646C135.604 17.6889 135.726 17.5673 135.979 17.5005C136.633 17.3497 137.343 17.1447 138.107 16.8845C138.871 16.6249 139.639 16.3315 140.412 16.005C141.185 15.678 141.932 15.3261 142.654 14.9493C143.376 14.5725 144.022 14.1913 144.594 13.8057C144.745 13.7051 144.9 13.6636 145.06 13.6802ZM86.4073 2.93878C86.8941 2.93878 87.2214 3.13987 87.3897 3.54206C87.5409 3.96083 87.7674 4.56411 88.0698 5.35139C88.3721 6.13916 88.7161 7.03138 89.1026 8.02806C89.4886 9.02473 89.9001 10.1014 90.337 11.2577C90.7734 12.4135 91.2098 13.5659 91.6467 14.7129C92.0837 15.8609 92.5073 16.9713 92.9193 18.0431C93.3308 19.1154 93.7002 20.0789 94.028 20.9331C94.1098 21.1467 94.1882 21.3512 94.2632 21.5466L94.478 22.1051C94.6143 22.4592 94.7371 22.7766 94.8465 23.0572C95.0647 23.6185 95.1992 23.9577 95.2496 24.0749C95.2829 24.1588 95.3333 24.2047 95.4008 24.213C95.4678 24.2218 95.5182 24.1842 95.552 24.0998C95.5853 24.0163 95.7115 23.6981 95.9297 23.1451C96.1479 22.5921 96.4292 21.8926 96.7737 21.0463C97.1176 20.2004 97.508 19.237 97.9454 18.1558C98.3819 17.0757 98.831 15.957 99.2929 14.8007C99.7547 13.645 100.217 12.4892 100.678 11.3329C101.14 10.1766 101.577 9.09208 101.989 8.07833C102.4 7.06457 102.765 6.16015 103.084 5.36408L103.188 5.10585L103.378 4.63118C103.557 4.18438 103.703 3.82124 103.815 3.54206C103.982 3.13987 104.327 2.93878 104.848 2.93878H115.983C116.15 2.93878 116.276 2.97636 116.361 3.05202C116.445 3.12718 116.49 3.21113 116.499 3.30338C116.507 3.39563 116.474 3.48788 116.398 3.57964C116.323 3.67189 116.209 3.72655 116.058 3.74315C115.857 3.77683 115.538 3.85199 115.101 3.96913C114.664 4.08676 114.224 4.28346 113.778 4.55972C113.333 4.83597 112.943 5.22156 112.607 5.71599C112.271 6.21042 112.103 6.84298 112.103 7.61318V32.1922C112.103 32.98 112.271 33.6165 112.607 34.1021C112.943 34.5882 113.333 34.9738 113.778 35.2584C114.224 35.5434 114.664 35.7401 115.101 35.849C115.538 35.9583 115.857 36.0291 116.058 36.0627C116.209 36.0964 116.323 36.155 116.398 36.2385C116.474 36.3224 116.507 36.4103 116.499 36.5025C116.49 36.5948 116.445 36.6782 116.361 36.7539C116.276 36.829 116.15 36.8666 115.983 36.8666H99.9103C99.742 36.8666 99.6163 36.829 99.5321 36.7539C99.4479 36.6782 99.402 36.5948 99.3936 36.5025C99.3848 36.4103 99.4191 36.3224 99.4944 36.2385C99.5698 36.155 99.6833 36.0964 99.8345 36.0627C100.036 36.0291 100.355 35.9583 100.792 35.849C101.228 35.7401 101.669 35.5434 102.114 35.2584C102.559 34.9738 102.95 34.5882 103.286 34.1021C103.622 33.6165 103.79 32.98 103.79 32.1922V8.8949C103.79 8.77824 103.743 8.69869 103.651 8.65622C103.559 8.61474 103.47 8.6777 103.386 8.84462C103.353 8.91198 103.226 9.21801 103.009 9.76223C102.79 10.3069 102.505 11.0273 102.152 11.9235C101.799 12.8201 101.388 13.8504 100.918 15.0145C100.448 16.1796 99.9519 17.4149 99.4313 18.7215C98.9107 20.0286 98.3775 21.3694 97.8319 22.7429C97.2859 24.1168 96.7526 25.4532 96.2321 26.751C95.7115 28.0498 95.2203 29.2769 94.7584 30.4332C94.2961 31.589 93.889 32.6071 93.5363 33.4866C93.184 34.3662 92.8983 35.0661 92.6801 35.5849C92.4618 36.1047 92.3439 36.381 92.3273 36.4147C92.2265 36.5821 92.0959 36.6655 91.9369 36.6655C91.7769 36.6655 91.6555 36.5821 91.5714 36.4147C91.5548 36.381 91.4369 36.0837 91.2186 35.5224C91.0004 34.9611 90.7064 34.2114 90.337 33.2728C89.9676 32.3347 89.539 31.2419 89.0522 29.9934C88.5649 28.7454 88.0483 27.4217 87.5027 26.0223C86.9572 24.6235 86.3985 23.1826 85.8275 21.6998C85.2566 20.217 84.6978 18.7718 84.1523 17.3647C83.6063 15.957 83.0901 14.625 82.6033 13.3687C82.116 12.1119 81.6874 11.0025 81.3185 10.0385C80.9486 9.07549 80.6463 8.30041 80.4114 7.71373C80.1761 7.12754 80.0499 6.80101 80.0337 6.73365C79.9833 6.59992 79.9075 6.53256 79.8067 6.53256C79.7059 6.53256 79.6472 6.61651 79.6301 6.78392V32.1922C79.6301 32.98 79.7979 33.6165 80.1345 34.1021C80.4701 34.5882 80.8606 34.9738 81.3058 35.2584C81.7505 35.5434 82.1914 35.7401 82.6283 35.849C83.0647 35.9583 83.3842 36.0291 83.5857 36.0627C83.7364 36.0964 83.8499 36.155 83.9258 36.2385C84.0016 36.3224 84.0349 36.4103 84.0266 36.5025C84.0178 36.5948 83.9718 36.6782 83.8881 36.7539C83.8035 36.829 83.6777 36.8666 83.5099 36.8666H73.9875C73.8192 36.8666 73.6934 36.829 73.6093 36.7539C73.5251 36.6782 73.4792 36.5948 73.4708 36.5025C73.462 36.4103 73.4963 36.3224 73.5716 36.2385C73.647 36.155 73.7605 36.0964 73.9117 36.0627C74.1132 36.0291 74.4322 35.9583 74.8691 35.849C75.3056 35.7401 75.7464 35.5434 76.1916 35.2584C76.6363 34.9738 77.0272 34.5882 77.3634 34.1021C77.699 33.6165 77.8668 32.98 77.8668 32.1922V7.61318C77.8668 6.84298 77.699 6.21042 77.3634 5.71599C77.0272 5.22156 76.6363 4.83597 76.1916 4.55972C75.7464 4.28346 75.3056 4.08676 74.8691 3.96913C74.4322 3.85199 74.1132 3.77683 73.9117 3.74315C73.7605 3.72655 73.647 3.67189 73.5716 3.57964C73.4963 3.48788 73.462 3.39563 73.4708 3.30338C73.4792 3.21113 73.5251 3.12718 73.6093 3.05202C73.6934 2.97636 73.8192 2.93878 73.9875 2.93878H86.4073ZM174.15 15.1409C173.345 15.1409 172.643 15.4172 172.047 15.9702C171.45 16.5232 170.951 17.2817 170.548 18.2447C170.145 19.2082 169.846 20.3351 169.654 21.6252C169.46 22.9152 169.364 24.2891 169.364 25.7466C169.364 27.2045 169.46 28.5784 169.654 29.868C169.846 31.1585 170.145 32.285 170.548 33.2484C170.951 34.2119 171.45 34.9699 172.047 35.5229C172.643 36.0759 173.345 36.3522 174.15 36.3522C174.956 36.3522 175.658 36.0759 176.254 35.5229C176.85 34.9699 177.345 34.2119 177.74 33.2484C178.135 32.285 178.433 31.1585 178.634 29.868C178.836 28.5784 178.936 27.2045 178.936 25.7466C178.936 24.2891 178.836 22.9152 178.634 21.6252C178.433 20.3351 178.135 19.2082 177.74 18.2447C177.345 17.2817 176.85 16.5232 176.254 15.9702C175.658 15.4172 174.956 15.1409 174.15 15.1409ZM200.534 16.1171C199.392 16.1171 198.477 16.327 197.789 16.7453C197.099 17.1645 196.57 17.6751 196.201 18.2784C195.832 18.8816 195.588 19.5225 195.47 20.2009C195.353 20.8794 195.295 21.4787 195.295 21.9981V28.7834C195.295 29.4204 195.365 30.1325 195.508 30.9198C195.651 31.7076 195.907 32.4529 196.277 33.1567C196.646 33.86 197.15 34.4506 197.789 34.9284C198.427 35.4058 199.241 35.6445 200.232 35.6445C201.223 35.6445 202.067 35.3931 202.764 34.8904C203.461 34.3881 204.031 33.697 204.476 32.817C204.922 31.9374 205.245 30.8988 205.447 29.701C205.648 28.5028 205.749 27.2089 205.749 25.8178C205.749 25.4327 205.745 24.93 205.736 24.3101C205.727 23.6903 205.678 23.0201 205.585 22.2997C205.493 21.5793 205.346 20.8506 205.145 20.1131C204.943 19.3761 204.649 18.7142 204.263 18.1275C203.877 17.5413 203.381 17.0596 202.777 16.6823C202.172 16.3055 201.424 16.1171 200.534 16.1171ZM125.792 15.1409C125.271 15.1409 124.818 15.2796 124.431 15.5558C124.045 15.8321 123.714 16.1928 123.436 16.6364C123.159 17.0806 122.928 17.5706 122.744 18.1065C122.559 18.643 122.407 19.1662 122.29 19.6772C122.173 20.1887 122.085 20.6578 122.026 21.0848C121.967 21.5119 121.929 21.8345 121.912 22.0522C121.879 22.2704 121.979 22.3788 122.215 22.3788L122.287 22.3779C122.371 22.3764 122.515 22.3728 122.719 22.3666C123.004 22.3583 123.352 22.3456 123.764 22.3285C124.176 22.3124 124.616 22.2953 125.086 22.2782C125.556 22.2621 126.006 22.245 126.435 22.2279C126.863 22.2118 127.232 22.1991 127.543 22.1904C127.854 22.1826 128.051 22.1699 128.135 22.1528C128.403 22.1362 128.685 22.019 128.979 21.8009C129.273 21.5837 129.42 21.2064 129.42 20.67C129.42 20.1843 129.352 19.623 129.218 18.9861C129.083 18.3496 128.87 17.7463 128.576 17.1767C128.282 16.6071 127.908 16.1254 127.455 15.7315C127.001 15.3381 126.447 15.1409 125.792 15.1409ZM224.064 13.6767C225.928 13.6767 227.519 13.8651 228.838 14.2419C230.156 14.6192 231.231 15.1678 232.062 15.8882C232.893 16.6086 233.499 17.5008 233.876 18.5649C234.255 19.6289 234.442 20.8389 234.442 22.1962C234.442 23.8215 234.393 25.3463 234.292 26.7701C234.191 28.1943 234.12 29.4555 234.077 30.5527C234.035 31.65 234.056 32.5549 234.141 33.267C234.225 33.9791 234.46 34.4189 234.846 34.5863C235.014 34.6702 235.224 34.7078 235.476 34.699C235.728 34.6912 235.996 34.6615 236.282 34.6112C236.517 34.5609 236.702 34.6073 236.836 34.7493C236.97 34.8918 236.979 35.0807 236.861 35.315C236.761 35.4995 236.597 35.7172 236.37 35.9685C236.144 36.2199 235.842 36.4547 235.463 36.6719C235.086 36.8901 234.623 37.0741 234.077 37.2249C233.532 37.3757 232.89 37.4514 232.15 37.4514C231.126 37.4514 230.265 37.2459 229.568 36.8354C228.872 36.4249 228.388 35.952 228.12 35.4155C228.053 35.2818 227.956 35.2232 227.83 35.2398C227.704 35.2564 227.599 35.3067 227.516 35.3902C227.465 35.4404 227.309 35.5791 227.049 35.805C226.789 36.031 226.42 36.2741 225.941 36.5338C225.462 36.7939 224.887 37.0277 224.215 37.2376C223.543 37.447 222.77 37.5519 221.898 37.5519C220.402 37.5519 219.147 37.342 218.131 36.9232C217.115 36.505 216.292 35.9646 215.663 35.3023C215.033 34.641 214.579 33.8952 214.302 33.0659C214.025 32.2362 213.886 31.4113 213.886 30.5903C213.886 29.2666 214.26 28.1108 215.007 27.122C215.754 26.1336 216.725 25.3966 217.917 24.9105C218.555 24.6591 219.223 24.479 219.92 24.3702C220.617 24.2613 221.309 24.1481 221.998 24.0309C222.686 23.9138 223.363 23.7669 224.026 23.5907C224.689 23.415 225.315 23.126 225.902 22.7238C226.524 22.3056 226.957 21.7691 227.2 21.1156C227.444 20.462 227.565 19.767 227.565 19.0295C227.565 18.4936 227.494 17.9782 227.351 17.4837C227.209 16.9898 227.007 16.5583 226.746 16.1893C226.487 15.8213 226.184 15.528 225.839 15.3103C225.495 15.0926 225.122 14.9833 224.718 14.9833C223.996 14.9833 223.468 15.1678 223.131 15.5363C222.796 15.9048 222.531 16.3489 222.338 16.8683C222.145 17.3881 221.965 17.9279 221.797 18.4892C221.628 19.051 221.36 19.5322 220.99 19.9344C220.688 20.2527 220.297 20.4913 219.82 20.6505C219.341 20.8101 218.883 20.8891 218.446 20.8891C217.992 20.8891 217.589 20.814 217.236 20.6631C216.884 20.5123 216.582 20.3073 216.33 20.0472C216.078 19.788 215.889 19.4864 215.763 19.1428C215.637 18.7996 215.574 18.435 215.574 18.0494C215.574 17.5306 215.7 17.0108 215.952 16.4915C216.203 15.9721 216.653 15.5031 217.299 15.0838C217.947 14.6651 218.815 14.3258 219.907 14.0662C220.999 13.8065 222.384 13.6767 224.064 13.6767ZM270.145 13.6767C271.186 13.6767 272.152 13.7606 273.041 13.928C273.932 14.0955 274.709 14.2839 275.372 14.4932C276.036 14.7031 276.565 14.8998 276.959 15.0843C277.354 15.2688 277.577 15.3694 277.627 15.3855C277.728 15.4357 277.786 15.4777 277.803 15.5114C277.819 15.5451 277.836 15.6036 277.854 15.6871C277.854 15.7208 277.895 15.9512 277.98 16.3782C278.063 16.8053 278.147 17.2705 278.231 17.7732C278.315 18.2759 278.4 18.7367 278.483 19.1554C278.567 19.5742 278.61 19.809 278.61 19.8593C278.643 20.0267 278.584 20.1482 278.433 20.2234C278.282 20.299 278.147 20.2527 278.03 20.0852C277.794 19.7504 277.426 19.298 276.921 18.7279C276.418 18.1588 275.804 17.5975 275.082 17.0445C274.36 16.4915 273.558 16.0102 272.676 15.5992C271.795 15.1888 270.858 14.9838 269.868 14.9838C268.826 14.9838 268.062 15.26 267.576 15.813C267.088 16.366 266.844 17.0362 266.844 17.8235C266.844 18.2256 266.903 18.6151 267.021 18.9919C267.138 19.3687 267.39 19.7333 267.777 20.0852C268.163 20.4372 268.721 20.793 269.453 21.1532C270.183 21.5139 271.161 21.8785 272.387 22.2465C274.839 23.0006 276.695 24.0226 277.954 25.3127C279.214 26.6032 279.843 28.27 279.843 30.3141C279.843 31.3532 279.667 32.3118 279.315 33.1913C278.962 34.0709 278.416 34.8338 277.677 35.4785C276.938 36.1238 275.998 36.6309 274.856 36.9989C273.713 37.3674 272.353 37.5519 270.775 37.5519C269.448 37.5519 268.269 37.4553 267.235 37.263C266.202 37.0702 265.329 36.8569 264.615 36.6221C263.901 36.3878 263.343 36.1657 262.94 35.9559C262.537 35.747 262.302 35.6166 262.235 35.5664C262.2 35.5332 262.172 35.4829 262.146 35.4155C262.121 35.3492 262.1 35.2735 262.083 35.1896C262.083 35.1564 262.046 34.9172 261.97 34.4731C261.895 34.0294 261.814 33.5393 261.73 33.0029C261.646 32.467 261.567 31.9599 261.491 31.4825C261.416 31.0052 261.369 30.708 261.353 30.5903C261.319 30.356 261.386 30.2174 261.555 30.1759C261.722 30.134 261.848 30.1798 261.932 30.3141C261.949 30.3643 262.058 30.5401 262.26 30.8417C262.461 31.1433 262.738 31.5118 263.091 31.9472C263.444 32.3831 263.868 32.8521 264.363 33.3548C264.859 33.8576 265.413 34.3227 266.026 34.7498C266.639 35.1769 267.306 35.5288 268.028 35.805C268.751 36.0818 269.523 36.2199 270.347 36.2199C271.303 36.2199 272.055 35.9603 272.601 35.4409C273.146 34.9216 273.42 34.2344 273.42 33.3797C273.42 32.9278 273.361 32.4841 273.243 32.0478C273.125 31.6124 272.874 31.177 272.487 30.7411C272.101 30.3058 271.547 29.8738 270.824 29.4467C270.103 29.0197 269.137 28.5887 267.928 28.1528C266.82 27.7672 265.887 27.307 265.131 26.7701C264.376 26.2342 263.763 25.6353 263.293 24.9734C262.823 24.3116 262.482 23.6 262.272 22.8371C262.062 22.0752 261.958 21.2664 261.958 20.4123C261.958 19.7587 262.074 19.0422 262.31 18.2632C262.545 17.4842 262.969 16.755 263.582 16.0766C264.195 15.3982 265.031 14.829 266.089 14.3678C267.147 13.9071 268.499 13.6767 270.145 13.6767ZM243.524 14.1648C243.928 14.1648 244.129 14.3829 244.129 14.8183V29.5204C244.145 30.1911 244.209 30.8612 244.317 31.5309C244.426 32.2015 244.628 32.8092 244.922 33.3534C245.215 33.8981 245.627 34.3374 246.157 34.6727C246.686 35.008 247.396 35.1754 248.286 35.1754C249.226 35.1754 249.969 34.9787 250.515 34.5848C251.061 34.1914 251.476 33.6926 251.762 33.0893C252.047 32.4861 252.232 31.8203 252.316 31.0916C252.4 30.3624 252.443 29.663 252.443 28.9928V18.1109C252.443 17.4408 252.308 16.9005 252.04 16.49C251.77 16.0795 251.463 15.7608 251.119 15.5348C250.775 15.3088 250.44 15.1536 250.112 15.0697C249.784 14.9862 249.553 14.9276 249.419 14.894C249.285 14.8774 249.188 14.8271 249.129 14.7431C249.07 14.6597 249.049 14.5757 249.067 14.4918C249.083 14.4078 249.129 14.3327 249.205 14.2653C249.281 14.1989 249.386 14.1648 249.519 14.1648H258.64C259.043 14.1648 259.244 14.3829 259.244 14.8183V32.838C259.244 33.5086 259.378 34.0489 259.647 34.4589C259.915 34.8699 260.222 35.1881 260.567 35.4141C260.911 35.6401 261.246 35.7997 261.574 35.8914C261.902 35.9837 262.132 36.0383 262.267 36.0549C262.402 36.0886 262.498 36.1428 262.557 36.218C262.616 36.2936 262.637 36.3732 262.62 36.4571C262.603 36.5411 262.557 36.6162 262.481 36.6831C262.405 36.7505 262.3 36.7837 262.167 36.7837H253.046C252.862 36.7837 252.715 36.7422 252.606 36.6582C252.496 36.5743 252.443 36.4405 252.443 36.256V34.7732C251.737 35.4766 250.821 36.0925 249.697 36.6206C248.571 37.1483 247.177 37.4118 245.515 37.4118C244.137 37.4118 242.982 37.2615 242.051 36.9599C241.118 36.6582 240.346 36.256 239.732 35.7533C239.12 35.2506 238.65 34.6727 238.322 34.0191C237.994 33.3656 237.759 32.6871 237.617 31.9838C237.473 31.28 237.39 30.5806 237.365 29.885C237.34 29.19 237.327 28.5404 237.327 27.9376V18.1109C237.327 17.4408 237.193 16.9005 236.924 16.49C236.654 16.0795 236.349 15.7608 236.005 15.5348C235.66 15.3088 235.325 15.1536 234.997 15.0697C234.669 14.9862 234.438 14.9276 234.304 14.894C234.17 14.8774 234.074 14.8271 234.014 14.7431C233.955 14.6597 233.935 14.5757 233.951 14.4918C233.968 14.4078 234.014 14.3327 234.09 14.2653C234.165 14.1989 234.27 14.1648 234.404 14.1648H243.524ZM227.222 23.0402C227.087 23.1905 226.966 23.3335 226.857 23.4672C226.747 23.6015 226.6 23.7606 226.415 23.9446C226.096 24.2799 225.768 24.5942 225.433 24.8871C225.097 25.1804 224.761 25.4777 224.425 25.7793C224.089 26.0473 223.758 26.3157 223.43 26.5837C223.102 26.8516 222.796 27.145 222.51 27.4632C222.074 27.9654 221.75 28.5145 221.541 29.1095C221.33 29.704 221.225 30.3366 221.225 31.0067C221.225 31.4592 221.292 31.916 221.427 32.3763C221.562 32.8375 221.767 33.248 222.044 33.6082C222.322 33.9684 222.674 34.2613 223.102 34.4873C223.531 34.7137 224.047 34.827 224.652 34.827C225.256 34.827 225.748 34.701 226.126 34.4497C226.503 34.1983 226.797 33.8967 227.008 33.5452C227.217 33.1933 227.364 32.8375 227.448 32.4768C227.532 32.1166 227.574 31.836 227.574 31.6354V23.1656C227.574 23.0651 227.532 22.9982 227.448 22.9645C227.364 22.9313 227.289 22.9562 227.222 23.0402ZM288.26 22.0522C288.226 22.2704 288.327 22.3788 288.562 22.3788C288.612 22.3788 288.78 22.3753 289.066 22.3666C289.351 22.3583 289.7 22.3456 290.111 22.3285C290.522 22.3124 290.964 22.2953 291.434 22.2782C291.904 22.2621 292.353 22.245 292.781 22.2279C293.209 22.2118 293.579 22.1991 293.89 22.1904C294.201 22.1826 294.398 22.1699 294.483 22.1528C294.751 22.1362 295.032 22.019 295.326 21.8009C295.62 21.5837 295.767 21.2064 295.767 20.67C295.767 20.1843 295.7 19.623 295.565 18.9861C295.431 18.3496 295.216 17.7463 294.923 17.1767C294.629 16.6071 294.256 16.1254 293.802 15.7315C293.348 15.3381 292.794 15.1409 292.139 15.1409C291.618 15.1409 291.165 15.2796 290.778 15.5558C290.392 15.8321 290.061 16.1928 289.784 16.6364C289.507 17.0806 289.275 17.5706 289.091 18.1065C288.905 18.643 288.755 19.1662 288.638 19.6772C288.519 20.1887 288.432 20.6578 288.373 21.0848C288.314 21.5119 288.276 21.8345 288.26 22.0522ZM288.421 23.6034C288.153 23.6034 288.018 23.7459 288.018 24.0309C288.018 25.7397 288.169 27.2059 288.472 28.4291C288.774 29.6522 289.215 30.6533 289.795 31.4323C290.374 32.2113 291.096 32.7852 291.961 33.1538C292.826 33.5223 293.829 33.7068 294.972 33.7068C295.844 33.7068 296.621 33.6145 297.302 33.43C297.982 33.246 298.573 33.0322 299.078 32.7892C299.582 32.5466 299.993 32.3162 300.313 32.098C300.631 31.8803 300.867 31.7378 301.018 31.6709C301.253 31.5704 301.437 31.5919 301.572 31.7339C301.706 31.8764 301.706 32.0897 301.572 32.3748C301.522 32.4753 301.408 32.6725 301.232 32.9654C301.055 33.2587 300.799 33.5979 300.464 33.983C300.127 34.3686 299.708 34.7708 299.204 35.1896C298.7 35.6083 298.1 35.9934 297.403 36.3454C296.705 36.6973 295.907 36.9862 295.009 37.2127C294.111 37.4387 293.108 37.5519 291.999 37.5519C290.319 37.5519 288.8 37.2878 287.439 36.7602C286.078 36.2321 284.915 35.4658 283.95 34.4608C282.984 33.4554 282.237 32.2327 281.708 30.7914C281.179 29.3506 280.915 27.7253 280.915 25.9159C280.915 23.9387 281.242 22.1879 281.897 20.6631C282.551 19.1388 283.408 17.861 284.466 16.8302C285.524 15.8003 286.725 15.017 288.069 14.481C289.412 13.9446 290.781 13.6767 292.175 13.6767C293.485 13.6767 294.639 13.8568 295.639 14.217C296.638 14.5772 297.503 15.0462 298.234 15.6241C298.964 16.202 299.569 16.8473 300.048 17.5594C300.527 18.272 300.913 18.9792 301.206 19.6831C301.501 20.3869 301.706 21.0487 301.823 21.6686C301.941 22.2885 302 22.7829 302 23.1514C302 23.3188 301.946 23.4364 301.837 23.5028C301.727 23.5702 301.58 23.6034 301.395 23.6034H288.421Z" fill="#A440BC"/>
<path fill-rule="evenodd" clip-rule="evenodd" d="M27.9142 0.695956C27.0048 0.995745 26.2324 1.60747 25.7366 2.42132C24.9887 3.53496 24.3357 4.70836 23.7846 5.92987C22.9644 7.85284 22.2159 9.80373 21.5402 11.7785C22.197 11.7604 22.8521 11.7037 23.509 11.5977C24.5526 11.4296 25.6245 11.2751 26.226 10.2106C26.3719 9.95207 26.5873 10.0867 26.7449 10.2504C28.1457 11.7046 25.9901 13.1118 24.7214 13.4456C23.4908 13.7738 22.1599 13.9522 20.8089 14.019C19.8655 17.0454 19.0918 20.125 18.492 23.2423C18.491 23.3137 18.5008 23.3847 18.5223 23.4527C18.8444 23.2491 18.9213 22.8895 19.0842 22.5907C19.9819 20.9431 21.3627 18.8456 23.1698 18.0458C24.7807 17.332 26.5829 17.5191 27.436 18.7425C27.8599 19.4665 27.8599 20.361 27.436 21.0845C25.0459 24.7903 24.3299 28.8712 24.5951 33.1635C24.5775 33.9793 24.8722 34.7713 25.4194 35.3806C25.7914 35.7532 25.1928 36.0535 24.6549 36.1415C23.6808 36.2999 22.4366 35.6342 21.8311 34.6124C21.3392 33.7538 21.0558 32.7933 21.003 31.8069C20.7416 28.1473 21.4983 24.4866 23.1899 21.2239C23.5702 20.5559 24.0166 19.9271 24.5232 19.3475C23.1483 19.2897 21.7895 21.1477 21.1258 22.1384C19.2957 24.8578 17.9991 27.8961 17.305 31.0936C17.1063 32.269 16.9742 33.4545 16.9096 34.645C16.8053 35.676 16.5082 35.9767 15.5302 35.9559C14.5724 35.9359 13.7804 35.5953 13.7319 34.6071C13.6385 32.1864 13.7887 29.7633 14.1808 27.3728C14.8539 22.8101 15.9587 18.3256 17.4779 13.9781C16.8983 13.9396 16.327 13.8849 15.7711 13.8182C15.5719 13.7546 15.3535 13.7823 15.1769 13.8935C14.9997 14.0048 14.8812 14.1885 14.8538 14.395C12.9473 20.2887 11.0144 26.681 11.7217 32.9396C11.8715 34.2578 12.1769 36.9714 13.9547 37.1007C14.3291 37.1298 14.309 37.5035 13.9478 37.8028C13.0105 38.5807 11.0511 38.1618 10.1251 37.1119C8.04289 34.7519 8.05023 29.6317 8.39629 26.1615C8.80793 22.0607 9.8779 18.0566 11.0942 14.1277C11.3664 13.2561 11.359 13.222 10.526 13.1074C8.49124 12.7527 6.42031 12.6482 4.35966 12.7959C2.99895 12.9276 1.86681 13.1982 0.965219 14.2006C0.908441 14.2609 0.828658 14.2944 0.745448 14.2929C0.662239 14.2915 0.583925 14.2555 0.528615 14.1938C0.227594 13.9222 0.0391496 13.5486 0.000971299 13.1467C-0.0455279 11.7294 1.58635 10.9685 2.99797 10.7863C5.44383 10.4827 7.91367 10.4171 10.3727 10.5895C10.9655 10.625 11.5744 10.7334 12.0859 10.4316C12.9454 9.92243 13.2591 8.27189 13.6003 7.41431C13.8558 6.77149 14.3585 6.70347 15.0276 6.89879C15.9698 7.17429 17.2424 8.10475 16.7725 9.20236C16.5444 9.73683 16.3555 10.2878 16.1284 10.919C16.0946 11.0152 16.1054 11.1211 16.1587 11.2086C16.2116 11.296 16.3012 11.3553 16.403 11.3704C17.0591 11.4661 17.7065 11.554 18.3479 11.6242C18.8409 10.3513 19.3711 9.09248 19.9369 7.84812C20.8953 5.65583 22.1669 3.6127 23.7131 1.78093C24.6681 0.685753 26.6641 -0.943892 27.9142 0.695956ZM42.1259 18.1665C42.4969 18.51 42.7886 18.9293 42.982 19.3953C43.2052 19.7937 43.1215 20.2922 42.7798 20.5964C42.0084 21.3515 41.5924 22.3937 41.634 23.468C41.6467 23.656 41.5664 23.8387 41.4181 23.9567C41.2698 24.0743 41.0726 24.1122 40.891 24.0583C40.1343 23.9096 39.541 23.3266 39.3834 22.5773C39.3144 22.2775 39.2885 21.968 39.2366 21.6216C37.8852 23.0112 37.8568 25.1773 39.1083 26.909C39.1163 26.92 39.139 26.9538 39.1707 27.0004L39.2871 27.1691C39.419 27.3567 39.5801 27.5718 39.6144 27.5494C39.8195 27.4182 40.0173 27.2763 40.2077 27.1242C41.6306 25.9605 43.1347 24.7711 44.5492 23.6147C44.8811 23.3441 45.166 23.553 45.3676 23.8387C45.5595 24.1103 45.6628 24.446 45.4499 24.6171C43.9046 25.8595 42.3339 27.1373 40.7901 28.4137C40.6369 28.5065 40.5327 28.6606 40.5043 28.8365C40.4759 29.0119 40.5263 29.1907 40.6428 29.3257C41.748 31.1629 42.1357 33.257 40.4377 35.0572C38.8803 36.7097 35.9386 36.9473 34.7408 35.6349C34.0957 34.9279 34.1677 34.1641 34.5759 33.2925C35.3796 31.7687 36.4828 30.4209 37.821 29.3282C38.335 28.8797 37.6507 28.2505 37.3277 27.9279C36.6673 27.2672 36.1407 26.6562 35.7451 26.0634C35.2535 27.6924 34.7561 29.131 34.1642 30.7255C33.407 32.7662 32.1133 36.8831 29.1947 36.6105C27.7689 36.4788 26.9206 35.5571 26.9206 33.7574C26.9211 29.6842 28.0062 23.8546 29.2094 19.9856C29.3606 19.5011 30.2656 19.3452 30.781 19.4837C31.6885 19.6561 32.3028 20.5001 32.1838 21.4092C31.596 24.3182 30.689 28.9467 30.3199 31.913C30.2245 32.6792 30.086 33.8745 30.1912 34.216C30.3175 34.6252 30.6812 34.0727 30.784 33.8842C32.4153 30.8572 33.7359 27.6746 34.7256 24.3852C34.7704 24.2423 34.831 24.1397 34.9016 24.0725C34.7375 23.1265 34.9016 22.1352 35.382 20.971C36.1598 19.2855 37.6718 18.0465 39.4862 17.6092C40.4044 17.3361 41.3995 17.546 42.1259 18.1665ZM38.8064 30.1259C38.7501 30.1191 38.6938 30.1395 38.6542 30.1803C37.5999 31.1526 36.6993 32.2774 35.9837 33.5169C35.9191 33.6432 35.8633 33.7744 35.8177 33.909C35.5759 34.6111 35.8265 34.7306 36.735 34.0207C37.5852 33.3886 38.3086 32.6034 38.8676 31.707C39.2146 31.277 39.2445 30.6754 38.9425 30.2129C38.9136 30.1643 38.8632 30.1322 38.8064 30.1259ZM33.4349 15.9609C33.455 16.046 33.4594 16.1344 33.4471 16.2209C33.382 16.8588 33.2303 17.4847 32.9963 18.0823C32.7908 18.6036 32.2323 18.8976 31.6821 18.7742C31.434 18.7057 31.1931 18.6119 30.9646 18.4938C30.4834 18.2645 29.7805 17.9744 29.8642 17.318C29.9763 16.5246 30.2088 15.7525 30.5529 15.028C30.641 14.8342 31.037 14.6806 31.2543 14.6126C31.9406 14.3983 33.219 15.1728 33.4349 15.9609ZM67.5781 18.1665C67.9491 18.51 68.2408 18.9293 68.4342 19.3953C68.6574 19.7937 68.5737 20.2922 68.232 20.5964C67.4606 21.3515 67.0446 22.3937 67.0862 23.468C67.0989 23.656 67.0187 23.8387 66.8703 23.9567C66.722 24.0743 66.5248 24.1122 66.3432 24.0583C65.5865 23.9096 64.9932 23.3266 64.8356 22.5773C64.7666 22.2775 64.7407 21.968 64.6888 21.6216C63.3374 23.0112 63.309 25.1773 64.5606 26.909C64.5685 26.92 64.5912 26.9538 64.6229 27.0004L64.7393 27.1691C64.8713 27.3567 65.0323 27.5718 65.0667 27.5494C65.2717 27.4182 65.4695 27.2763 65.6599 27.1242C67.0828 25.9605 68.5869 24.7711 70.0015 23.6147C70.3333 23.3441 70.6182 23.553 70.8198 23.8387C71.0117 24.1103 71.115 24.446 70.9021 24.6171C69.3568 25.8595 67.7861 27.1373 66.2424 28.4137C66.0892 28.5065 65.9849 28.6606 65.9565 28.8365C65.9281 29.0119 65.9785 29.1907 66.095 29.3257C67.2002 31.1629 67.5879 33.257 65.8899 35.0572C64.3325 36.7097 61.3908 36.9473 60.1931 35.6349C59.5479 34.9279 59.6199 34.1641 60.0281 33.2925C60.8318 31.7687 61.9351 30.4209 63.2733 29.3282C63.7872 28.8797 63.1029 28.2505 62.7799 27.9279C62.1195 27.2672 61.5929 26.6562 61.1973 26.0634C60.7057 27.6924 60.2083 29.131 59.6164 30.7255C58.8592 32.7662 57.5656 36.8831 54.6469 36.6105C53.2211 36.4788 52.3728 35.5571 52.3728 33.7574C52.3733 29.6842 53.4585 23.8546 54.6616 19.9856C54.8128 19.5011 55.7178 19.3452 56.2332 19.4837C57.1407 19.6561 57.755 20.5001 57.636 21.4092C57.0482 24.3182 56.1412 28.9467 55.7722 31.913C55.6767 32.6792 55.5382 33.8745 55.6434 34.216C55.7697 34.6252 56.1334 34.0727 56.2362 33.8842C57.8676 30.8572 59.1881 27.6746 60.1778 24.3852C60.2226 24.2423 60.2832 24.1397 60.3538 24.0725C60.1898 23.1265 60.3538 22.1352 60.8343 20.971C61.612 19.2855 63.124 18.0465 64.9384 17.6092C65.8567 17.3361 66.8517 17.546 67.5781 18.1665ZM64.2586 30.1259C64.2023 30.1191 64.146 30.1395 64.1064 30.1803C63.0521 31.1526 62.1515 32.2774 61.4359 33.5169C61.3713 33.6432 61.3155 33.7744 61.2699 33.909C61.0281 34.6111 61.2788 34.7306 62.1872 34.0207C63.0374 33.3886 63.7608 32.6034 64.3198 31.707C64.6668 31.277 64.6967 30.6754 64.3947 30.2129C64.3658 30.1643 64.3154 30.1322 64.2586 30.1259ZM58.8871 15.9609C58.9072 16.046 58.9116 16.1344 58.8993 16.2209C58.8342 16.8588 58.6825 17.4847 58.4485 18.0823C58.243 18.6036 57.6845 18.8976 57.1343 18.7742C56.8862 18.7057 56.6454 18.6119 56.4168 18.4938C55.9356 18.2645 55.2328 17.9744 55.3165 17.318C55.4285 16.5246 55.661 15.7525 56.0051 15.028C56.0932 14.8342 56.4892 14.6806 56.7065 14.6126C57.3928 14.3983 58.6712 15.1728 58.8871 15.9609Z" fill="#2B2B68"/>
</g>
<defs>
<clipPath id="clip0_12_317">
<rect width="302" height="48" fill="white"/>
</clipPath>
</defs>
</svg>
