<svg preserveAspectRatio="none" overflow="visible" style="display: block;" width="128" height="128" viewBox="0 0 128 128" fill="none" xmlns="http://www.w3.org/2000/svg">
<g id="Art / leadership">
<path id="Vector" d="M64 80C79.464 80 92 67.464 92 52C92 36.536 79.464 24 64 24C48.536 24 36 36.536 36 52C36 67.464 48.536 80 64 80Z" stroke="#A440BC" stroke-width="3" stroke-linecap="round" stroke-linejoin="round"/>
<path id="Vector_2" d="M64 36L67.8 46.8L79.2 47.1L70.1 54L73.4 64.9L64 58.4L54.6 64.9L57.9 54L48.8 47.1L60.2 46.8L64 36Z" stroke="#A440BC" stroke-width="3" stroke-linecap="round" stroke-linejoin="round"/>
<path id="Vector_3" d="M46 75L38 108L55 99L64 110L73 99L90 108L82 75" stroke="#A440BC" stroke-width="3" stroke-linecap="round" stroke-linejoin="round"/>
</g>
</svg>
