<svg preserveAspectRatio="none" overflow="visible" style="display: block;" width="20" height="20" viewBox="0 0 20 20" fill="none" xmlns="http://www.w3.org/2000/svg">
<g id="Icon">
<g id="Vector">
<path d="M12.4774 2.43054H7.52281C3.76373 2.43054 0.916748 5.33024 0.916748 9.15894L0.920434 9.36366C1.04536 12.8296 4.32479 15.5533 7.5834 15.5533L8.58804 15.5526L8.67091 15.6346C9.91799 16.8243 11.6332 17.5694 13.3031 17.5694C13.9798 17.5694 14.4959 17.1664 14.4959 16.4636C14.4959 16.3316 14.4786 16.2083 14.4453 16.0671L14.4068 15.9191C14.3828 15.8336 14.2907 15.5345 14.2775 15.4899L14.2214 15.2843L14.292 15.2664C17.1252 14.4847 19.0834 12.32 19.0834 9.15894C19.0834 5.3563 16.1834 2.43054 12.4774 2.43054ZM12.4774 4.11264C15.2748 4.11264 17.4319 6.2889 17.4319 9.15894C17.4319 11.717 15.7211 13.3626 13.1674 13.7962L12.4774 13.9133V14.6258L12.4836 14.8506C12.5002 15.1461 12.5497 15.4284 12.6299 15.7366L12.6572 15.8371C11.5042 15.6609 10.3489 15.0325 9.54094 14.1415L9.29574 13.8712H7.5834C5.11251 13.8712 2.56826 11.7169 2.56826 9.15894C2.56826 6.25924 4.67583 4.11264 7.52281 4.11264H12.4774Z" fill="#0D1B29" fill-opacity="0.65"/>
<path d="M7.52319 2.63855H12.4773C16.0653 2.63855 18.8748 5.46844 18.8748 9.15906C18.8747 12.2147 16.9911 14.3053 14.2371 15.0653L14.1707 15.0819L13.9646 15.1346L14.0203 15.3387L14.0769 15.5448L14.0779 15.5487L14.2058 15.9755L14.2439 16.12C14.2736 16.2473 14.2878 16.353 14.2878 16.4637C14.2878 16.7604 14.1805 16.9781 14.0154 17.1239C13.8472 17.2724 13.6015 17.3611 13.3035 17.3612C11.7932 17.3612 10.2354 16.7274 9.04761 15.6952L8.81519 15.4843L8.73413 15.4042L8.67358 15.3446H7.58374C4.5216 15.3446 1.4476 12.8589 1.14917 9.66687L1.12866 9.35632L1.12476 9.15906C1.12476 5.4418 3.88276 2.63855 7.52319 2.63855ZM7.52319 3.90417C4.55756 3.90417 2.36011 6.14792 2.36011 9.15906C2.36015 10.5088 3.03096 11.7399 4.00952 12.6288C4.98757 13.517 6.29004 14.08 7.58374 14.08H9.20386L9.38647 14.2811C10.2256 15.2063 11.424 15.8591 12.6257 16.0428L12.9421 16.0917L12.8582 15.7821L12.8318 15.6844C12.7548 15.3886 12.7081 15.1215 12.6921 14.8446L12.6853 14.62V14.0887L13.2019 14.0018C14.5132 13.7792 15.6238 13.2423 16.408 12.4178C17.1943 11.591 17.6404 10.4875 17.6404 9.15906C17.6404 6.17701 15.3928 3.90417 12.4773 3.90417H7.52319Z" stroke="#0D1B29" stroke-opacity="0.65" stroke-width="0.416684"/>
</g>
</g>
</svg>
