<svg preserveAspectRatio="none" overflow="visible" style="display: block;" width="182" height="182" viewBox="0 0 182 182" fill="none" xmlns="http://www.w3.org/2000/svg">
<g id="Graphical Element" clip-path="url(#clip0_0_4)">
<g id="Vector">
<path d="M91 3.42115C42.7098 3.42115 3.42115 42.7098 3.42115 91C3.42115 139.29 42.7098 178.579 91 178.579C139.29 178.579 178.579 139.29 178.579 91C178.579 42.7098 139.29 3.42115 91 3.42115ZM91 182C66.6914 182 43.8418 172.533 26.6522 155.348C9.46266 138.158 0 115.309 0 91C0 66.6914 9.46685 43.8418 26.6522 26.6522C43.8376 9.46685 66.6914 0 91 0C115.309 0 138.158 9.46685 155.348 26.6522C172.537 43.8418 182 66.6914 182 91C182 115.309 172.533 138.158 155.348 155.348C138.158 172.537 115.309 182 91 182Z" fill="#F6EFF8" fill-opacity="0.1"/>
<path d="M90.9993 18.4893C51.0146 18.4893 18.4886 51.0195 18.4886 91C18.4886 130.98 51.0188 163.511 90.9993 163.511C130.98 163.511 163.51 130.98 163.51 91C163.51 51.0195 130.98 18.4893 90.9993 18.4893ZM90.9993 15.0681C111.543 15.0681 130.577 23.2143 144.681 37.3182C158.785 51.422 166.931 70.4563 166.931 91C166.931 111.544 158.785 130.578 144.681 144.682C130.577 158.786 111.543 166.932 90.9993 166.932C70.4556 166.932 51.4213 158.786 37.3175 144.682C23.2136 130.578 15.0674 111.544 15.0674 91C15.0674 70.4563 23.2136 51.422 37.3175 37.3182C51.4213 23.2143 70.4556 15.0681 90.9993 15.0681Z" fill="#F6EFF8" fill-opacity="0.1"/>
<path d="M90.9993 33.5574C59.3243 33.5574 33.5567 59.325 33.5567 91C33.5567 122.675 59.3243 148.443 90.9993 148.443C122.674 148.443 148.442 122.675 148.442 91C148.442 59.325 122.674 33.5574 90.9993 33.5574ZM90.9993 151.864C57.4376 151.864 30.1355 124.562 30.1355 91C30.1355 57.4384 57.4376 30.1363 90.9993 30.1363C124.561 30.1363 151.863 57.4384 151.863 91C151.863 124.562 124.561 151.864 90.9993 151.864Z" fill="#F6EFF8" fill-opacity="0.1"/>
<path d="M90.9994 48.4704C67.5461 48.4704 48.4698 67.5509 48.4698 91C48.4698 114.449 67.5503 133.53 90.9994 133.53C114.448 133.53 133.529 114.449 133.529 91C133.529 67.5509 114.448 48.4704 90.9994 48.4704ZM90.9994 136.951C65.6636 136.951 45.0487 116.336 45.0487 91C45.0487 65.6642 65.6636 45.0493 90.9994 45.0493C116.335 45.0493 136.95 65.6642 136.95 91C136.95 116.336 116.335 136.951 90.9994 136.951Z" fill="#F6EFF8" fill-opacity="0.1"/>
<path d="M90.9993 63.3835C75.7719 63.3835 63.3828 75.7725 63.3828 91C63.3828 106.227 75.7719 118.617 90.9993 118.617C106.227 118.617 118.616 106.227 118.616 91C118.616 75.7725 106.227 63.3835 90.9993 63.3835ZM90.9993 122.038C73.8852 122.038 59.9616 108.114 59.9616 91C59.9616 73.8859 73.8852 59.9623 90.9993 59.9623C108.113 59.9623 122.037 73.8859 122.037 91C122.037 108.114 108.113 122.038 90.9993 122.038Z" fill="#F6EFF8" fill-opacity="0.1"/>
</g>
</g>
<defs>
<clipPath id="clip0_0_4">
<rect width="182" height="182" fill="white"/>
</clipPath>
</defs>
</svg>
