<svg preserveAspectRatio="none" overflow="visible" style="display: block;" width="265" height="265" viewBox="0 0 265 265" fill="none" xmlns="http://www.w3.org/2000/svg">
<g id="Graphical Element" clip-path="url(#clip0_0_4)">
<g id="Vector">
<path d="M132.5 4.98134C62.1874 4.98134 4.98134 62.1874 4.98134 132.5C4.98134 202.813 62.1874 260.019 132.5 260.019C202.813 260.019 260.019 202.813 260.019 132.5C260.019 62.1874 202.813 4.98134 132.5 4.98134ZM132.5 265C97.1056 265 63.8356 251.216 38.8068 226.193C13.7781 201.164 0 167.894 0 132.5C0 97.1056 13.7842 63.8356 38.8068 38.8068C63.8295 13.7841 97.1056 0 132.5 0C167.894 0 201.164 13.7841 226.193 38.8068C251.222 63.8356 265 97.1056 265 132.5C265 167.894 251.216 201.164 226.193 226.193C201.164 251.222 167.894 265 132.5 265Z" fill="#2B2B68" fill-opacity="0.5"/>
<path d="M132.499 26.9212C74.2795 26.9212 26.9202 74.2867 26.9202 132.5C26.9202 190.713 74.2857 238.079 132.499 238.079C190.712 238.079 238.078 190.713 238.078 132.5C238.078 74.2867 190.712 26.9212 132.499 26.9212ZM132.499 21.9399C162.411 21.9399 190.126 33.8011 210.662 54.3369C231.198 74.8727 243.059 102.588 243.059 132.5C243.059 162.412 231.198 190.127 210.662 210.663C190.126 231.199 162.411 243.06 132.499 243.06C102.587 243.06 74.8717 231.199 54.3359 210.663C33.8 190.127 21.9388 162.412 21.9388 132.5C21.9388 102.588 33.8 74.8727 54.3359 54.3369C74.8717 33.8011 102.587 21.9399 132.499 21.9399Z" fill="#2B2B68" fill-opacity="0.5"/>
<path d="M132.499 48.8611C86.3788 48.8611 48.86 86.3799 48.86 132.5C48.86 178.62 86.3788 216.139 132.499 216.139C178.619 216.139 216.138 178.62 216.138 132.5C216.138 86.3799 178.619 48.8611 132.499 48.8611ZM132.499 221.12C83.6317 221.12 43.8787 181.367 43.8787 132.5C43.8787 83.6328 83.6317 43.8797 132.499 43.8797C181.366 43.8797 221.119 83.6328 221.119 132.5C221.119 181.367 181.366 221.12 132.499 221.12Z" fill="#2B2B68" fill-opacity="0.5"/>
<path d="M132.499 70.5751C98.3501 70.5751 70.5742 98.3571 70.5742 132.5C70.5742 166.643 98.3562 194.425 132.499 194.425C166.642 194.425 194.424 166.643 194.424 132.5C194.424 98.3571 166.642 70.5751 132.499 70.5751ZM132.499 199.406C95.6091 199.406 65.5929 169.39 65.5929 132.5C65.5929 95.61 95.6091 65.5938 132.499 65.5938C169.389 65.5938 199.405 95.61 199.405 132.5C199.405 169.39 169.389 199.406 132.499 199.406Z" fill="#2B2B68" fill-opacity="0.5"/>
<path d="M132.499 92.2891C110.327 92.2891 92.2881 110.328 92.2881 132.5C92.2881 154.672 110.327 172.711 132.499 172.711C154.671 172.711 172.71 154.672 172.71 132.5C172.71 110.328 154.671 92.2891 132.499 92.2891ZM132.499 177.692C107.58 177.692 87.3068 157.419 87.3068 132.5C87.3068 107.581 107.58 87.3078 132.499 87.3078C157.418 87.3078 177.691 107.581 177.691 132.5C177.691 157.419 157.418 177.692 132.499 177.692Z" fill="#2B2B68" fill-opacity="0.5"/>
</g>
</g>
<defs>
<clipPath id="clip0_0_4">
<rect width="265" height="265" fill="white"/>
</clipPath>
</defs>
</svg>
