<svg preserveAspectRatio="none" overflow="visible" style="display: block;" width="44" height="44" viewBox="0 0 44 44" fill="none" xmlns="http://www.w3.org/2000/svg">
<g id="Icon">
<path id="Vector" d="M11.8268 18.7258C11.8267 17.7769 12.0736 16.8428 12.5455 16.0076C13.0174 15.1724 13.6994 14.4622 14.5302 13.941C15.3609 13.4197 16.3143 13.1038 17.3047 13.0215C18.2951 12.9393 19.2914 13.0933 20.204 13.4698C21.1165 13.8463 21.9167 14.4333 22.5326 15.1782C23.1485 15.9231 23.5608 16.8025 23.7324 17.7372C23.9039 18.6719 23.8294 19.6327 23.5154 20.5331C23.2015 21.4334 22.658 22.2452 21.9339 22.8954C23.2992 23.5281 24.4846 24.4656 25.3896 25.6285C26.2947 26.7914 26.8927 28.1454 27.1331 29.5758C27.1596 29.735 27.1529 29.8976 27.1135 30.0543C27.0741 30.211 27.0028 30.3588 26.9036 30.4892C26.8044 30.6196 26.6792 30.7301 26.5353 30.8143C26.3913 30.8985 26.2314 30.9549 26.0647 30.9801C25.8979 31.0053 25.7276 30.999 25.5634 30.9614C25.3992 30.9238 25.2444 30.8557 25.1078 30.761C24.9712 30.6663 24.8554 30.5468 24.7672 30.4094C24.679 30.272 24.6199 30.1194 24.5935 29.9602C24.3365 28.4231 23.5138 27.0238 22.2731 26.0136C21.0325 25.0034 19.4552 24.4485 17.8246 24.4485C16.1939 24.4485 14.6166 25.0034 13.376 26.0136C12.1354 27.0238 11.3127 28.4231 11.0556 29.9602C11.0291 30.1194 10.9699 30.272 10.8816 30.4094C10.7932 30.5467 10.6774 30.6661 10.5407 30.7608C10.404 30.8554 10.2492 30.9234 10.0849 30.9609C9.92071 30.9984 9.75036 31.0046 9.5836 30.9793C9.41685 30.9539 9.25696 30.8975 9.11306 30.8132C8.96916 30.7288 8.84407 30.6183 8.74494 30.4878C8.6458 30.3573 8.57456 30.2095 8.53528 30.0527C8.496 29.896 8.48944 29.7333 8.516 29.5742C8.75552 28.1439 9.35328 26.79 10.2585 25.6275C11.1637 24.465 12.3495 23.5283 13.7152 22.897C13.1189 22.3616 12.6437 21.7153 12.3189 20.9979C11.9941 20.2806 11.8266 19.5073 11.8268 18.7258ZM27.2496 16.2722C28.2453 16.2729 29.2193 16.5494 30.0535 17.0683C30.8877 17.5871 31.5462 18.3259 31.949 19.1951C32.3519 20.0642 32.4817 21.0263 32.3228 21.9645C32.1639 22.9027 31.7231 23.7767 31.054 24.4804C32.0976 24.9739 33.0249 25.6654 33.7792 26.5125C34.5334 27.3596 35.0989 28.3446 35.4409 29.4073C35.5088 29.6135 35.5184 29.8333 35.4686 30.0441C35.4188 30.255 35.3115 30.4496 35.1575 30.6081C35.0034 30.7665 34.8082 30.8833 34.5917 30.9465C34.3751 31.0097 34.1448 31.017 33.9243 30.9678C33.7038 30.9192 33.5007 30.8158 33.3355 30.6681C33.1703 30.5205 33.0489 30.3339 32.9835 30.1271C32.6759 29.1789 32.1161 28.323 31.3587 27.643C30.6012 26.963 29.672 26.482 28.6617 26.247C28.3811 26.1824 28.1314 26.0294 27.953 25.8128C27.7745 25.5962 27.6777 25.3285 27.6781 25.0529V24.4772C27.6779 24.2488 27.7446 24.0248 27.8705 23.8306C27.9964 23.6364 28.1767 23.4797 28.3909 23.3779C28.9105 23.1322 29.3277 22.726 29.5748 22.2253C29.8219 21.7246 29.8845 21.1589 29.7523 20.62C29.6201 20.0811 29.3009 19.6008 28.8466 19.2569C28.3922 18.913 27.8295 18.7259 27.2496 18.7258C26.9088 18.7258 26.5819 18.5966 26.3408 18.3665C26.0998 18.1364 25.9644 17.8244 25.9644 17.499C25.9644 17.1737 26.0998 16.8616 26.3408 16.6315C26.5819 16.4015 26.9088 16.2722 27.2496 16.2722ZM17.8246 15.4543C17.3681 15.4445 16.9143 15.5218 16.4896 15.6817C16.0649 15.8415 15.6779 16.0808 15.3515 16.3854C15.025 16.69 14.7655 17.0538 14.5884 17.4554C14.4112 17.8571 14.3199 18.2884 14.3198 18.7242C14.3197 19.16 14.4108 19.5914 14.5877 19.9931C14.7647 20.3948 15.0239 20.7587 15.3502 21.0635C15.6766 21.3682 16.0634 21.6077 16.488 21.7678C16.9126 21.9279 17.3664 22.0054 17.8228 21.9957C18.7183 21.9768 19.5705 21.624 20.1969 21.0129C20.8233 20.4018 21.1742 19.5808 21.1744 18.7258C21.1746 17.8708 20.8242 17.0497 20.1981 16.4383C19.572 15.8269 18.72 15.4737 17.8246 15.4543Z" fill="#0D1B29"/>
</g>
</svg>
